<svg width="189" height="189" xmlns="http://www.w3.org/2000/svg" xmlns:xlink="http://www.w3.org/1999/xlink" xml:space="preserve" overflow="hidden"><defs><clipPath id="clip0"><rect x="2844" y="1927" width="189" height="189"/></clipPath><clipPath id="clip1"><rect x="2875" y="1963" width="127" height="119"/></clipPath><clipPath id="clip2"><rect x="2875" y="1963" width="127" height="119"/></clipPath></defs><g clip-path="url(#clip0)" transform="translate(-2844 -1927)"><rect x="2844" y="1927" width="189" height="189" fill="#0100F8"/><g clip-path="url(#clip1)"><g clip-path="url(#clip2)"><g><g><path d="M9.16842 20.4337C5.86621 19.2931 2.99707 16.7403 1.31897 13.59 0.452763 11.9062 0.182157 10.0595-0.0344163 5.49706-0.250901 0.0655125-0.19678-0.423285 0.615216-0.0974196 1.15652 0.119853 2.40166 0.282786 3.43013 0.282786L5.2707 0.282786 5.2707 5.33414C5.2707 11.0372 6.13691 13.0468 9.16842 14.9479 12.7412 17.1205 17.6133 15.8169 19.8869 12.1235 20.7531 10.657 20.9696 9.35345 20.9696 5.33414L20.9696 0.282786 22.8102 0.282786C23.8387 0.282786 25.0837 0.119853 25.571-0.0974196 26.4372-0.368943 26.4912 0.119853 26.2748 5.49706 26.1124 10.1682 25.8417 11.9062 24.9215 13.6443 23.2432 16.7946 19.8869 19.619 16.5848 20.5967 13.066 21.683 12.6871 21.683 9.16842 20.4337Z" fill="#FFFFFF" fill-rule="evenodd" transform="matrix(1.00226 0 0 -1 2958.98 1984.57)"/><path d="M1.95805 7.28972C-0.809229 5.78923-0.592154 1.2879 2.22929 0.120889 5.2679-1.04612 8.36067 1.6769 7.54679 4.84452 6.9499 7.34522 4.23694 8.51223 1.95805 7.28972Z" fill="#FFFFFF" fill-rule="evenodd" transform="matrix(1.00226 0 0 -1 2875.25 1991.01)"/><path d="M0.141848 41.831 0.35873 39.6519 17.2794 39.6519 34.1458 39.6519 53.9411 19.7679 73.7361-0.116086 76.9902-0.116086 80.2441-0.116086 58.2798 21.9469 36.3152 44.01 18.1472 44.01-0.0751223 44.01 0.141848 41.831Z" fill="#FFFFFF" fill-rule="evenodd" transform="matrix(1.00226 0 0 -1 2885.68 2028.69)"/><path d="M0.940784 36.9801C-0.0891945 35.9498-0.14339 35.1905-0.14339 24.3449L-0.14339 12.8486 6.30737 6.39547 12.8123-0.111898 19.5883 6.39547 26.3645 12.8486 26.3645 24.6161C26.4186 36.1667 26.4186 36.3836 25.2262 37.197 24.1961 37.902 22.0819 38.0646 13.0292 38.0646 2.72959 38.0646 1.97067 38.0103 0.940784 36.9801ZM16.6612 31.8285C18.6668 30.798 19.9136 28.4662 19.9136 25.755 19.9136 23.3688 18.2874 20.4405 16.7154 19.8982 15.7396 19.6272 15.577 19.139 15.577 16.3192L15.577 13.1198 13.4087 13.1198 11.2403 13.1198 11.2403 16.048C11.2403 18.7053 11.0777 19.139 9.07196 21.1455 7.17467 23.0435 6.90369 23.5858 6.90369 25.755 6.90369 30.9066 12.1619 34.1602 16.6612 31.8285Z" fill="#FFFFFF" fill-rule="evenodd" transform="matrix(1.00226 0 0 -1 2958.98 2027.7)"/><path d="M1.9476 7.07848C-0.819683 5.62488-0.60261 1.26421 2.21883 0.133677 5.25744-0.996861 8.3502 1.64106 7.53633 4.70968 6.93944 7.13225 4.22648 8.26279 1.9476 7.07848Z" fill="#FFFFFF" fill-rule="evenodd" transform="matrix(1.00226 0 0 -1 2882.45 2000.19)"/><path d="M-0.0704472 32.6649-0.0704472 30.4836 12.0101 30.4836 24.145 30.4836 39.4363 15.1607 54.6729-0.107676 57.4481 0.0559015 60.169 0.219479 43.5174 17.5055 26.8658 34.7371 13.4249 34.7916-0.0704472 34.8462-0.0704472 32.6649Z" fill="#FFFFFF" fill-rule="evenodd" transform="matrix(1.00226 0 0 -1 2892.39 2028.69)"/><path d="M1.93716 7.09512C-0.830149 5.64151-0.613071 1.28079 2.2084 0.150244 5.24703-0.980306 8.33984 1.65764 7.52596 4.72632 6.92905 7.14891 4.21607 8.27945 1.93716 7.09512Z" fill="#FFFFFF" fill-rule="evenodd" transform="matrix(1.00226 0 0 -1 2889.41 2009.36)"/><path d="M0.150357 23.2615 0.36663 21.0885 6.74828 21.0885 13.1298 21.0885 23.5675 10.4947 34.0591-0.0990498 36.9253-0.0990498 39.8458-0.0990498 27.5153 12.6678 15.2389 25.4347 7.61355 25.4347-0.0660041 25.4347 0.150357 23.2615Z" fill="#FFFFFF" fill-rule="evenodd" transform="matrix(1.00226 0 0 -1 2899.85 2028.69)"/><path d="M17.535 61.1916C16.7741 60.2151 14.2197 55.8202 11.7741 51.4794L7.37182 43.6124 7.86093 33.8459 8.40444 24.1339 4.0022 19.6847C0.958702 16.6463-0.291281 15.0186-0.0739391 14.4218 0.143492 13.9335 0.469595 13.5537 0.686935 13.5537 0.958702 13.5537 3.45876 15.8325 6.23049 18.6538L11.3393 23.8083 11.0132 33.5204 10.6871 43.2866 14.6001 46.2708C19.3828 49.9603 19.2198 50.3401 19.2741 38.078 19.3285 28.4744 19.3285 28.4744 15.9589 24.2424L13.8936 21.5837 13.8936 11.4376C13.8936 4.27566 14.111 1.0745 14.5458 0.640412 14.9806 0.206328 17.7524-0.0107137 23.5133-0.0107137 30.3612-0.0107137 31.9373 0.152045 32.1547 0.80317 32.4264 1.50849 29.383 7.20551 27.5894 9.37584 27.046 9.97268 25.959 10.2982 24.3828 10.2982L22.0459 10.2982 22.0459 13.7164 22.0459 17.0804 28.785 21.8008C32.4264 24.4051 35.7961 26.6838 36.2309 26.8467 36.8286 27.0636 38.3505 24.7307 41.8287 18.0571 46.2852 9.64716 46.6657 8.67051 46.9374 5.14373 47.0463 3.08198 47.4265 1.02021 47.6982 0.640412 48.4047-0.227756 62.5898-0.281948 63.0789 0.58613 63.9485 1.88829 58.1333 8.67051 56.1223 8.67051 55.0353 8.67051 54.2745 9.43013 52.2635 12.577L49.7635 16.4836 49.7635 22.6147 49.7635 28.7459 65.5789 28.7459C80.3616 28.7459 81.3401 28.6916 81.0682 27.8234 80.9053 27.2808 79.4377 22.3976 77.753 16.9719 75.2529 8.88755 74.7096 6.60876 74.8727 3.95005L75.0355 0.80317 82.8074 0.640412C91.7749 0.477652 91.938 0.58613 88.4598 5.14373 86.7205 7.42254 86.0683 7.85664 84.3836 8.01938 83.2965 8.12796 82.3726 8.3449 82.3726 8.50777 82.3726 9.05032 90.0902 27.3894 90.5248 27.8234 90.7422 28.0946 92.2097 24.2966 93.8402 19.4134 95.8511 13.1196 96.775 9.48432 96.8836 6.77151 97.2641-0.0649071 96.5031 0.531847 104.927 0.531847 113.46 0.531847 113.514 0.58613 110.036 5.14373 108.243 7.53112 107.482 8.12796 106.286 8.12796 102.808 8.12796 103.025 6.28315 103.025 34.4428 103.025 54.8437 102.862 60.2151 102.319 60.649 101.775 61.1373 99.9816 59.6182 94.601 54.2467L87.5358 47.1933 66.9377 47.1933 46.2852 47.1933 38.5679 55.0606 30.9048 62.9279 24.872 62.9279 18.8394 62.9279 17.535 61.1916Z" fill="#FFFFFF" fill-rule="evenodd" transform="matrix(1.00226 0 0 -1 2884.94 2080.75)"/><path d="M-0.247829 30.9489-0.247829-0.0385557 15.4938-0.0385557 31.2353-0.0385557 31.2353 4.03877 31.2353 8.11601 20.6505 8.11601 10.0656 8.11601 10.0656 35.0261 10.0656 61.9363 4.90892 61.9363-0.247829 61.9363-0.247829 30.9489Z" fill="#FFFFFF" fill-rule="evenodd" transform="matrix(1.00226 0 0 -1 3027.06 2080.26)"/><path d="M-0.830633 30.9489-0.830633-0.0385557 4.37529-0.0385557 9.5812-0.0385557 9.5812 30.9489 9.5812 61.9363 4.37529 61.9363-0.830633 61.9363-0.830633 30.9489Z" fill="#FFFFFF" fill-rule="evenodd" transform="matrix(1.00226 0 0 -1 3426.58 2080.26)"/><path d="M-0.945876 57.8591-0.945876 53.7817 7.50745 53.7817 15.9609 53.7817 15.9609 26.8715 15.9609-0.0385557 21.142-0.0385557 26.3229-0.0385557 26.3229 26.8715 26.3229 53.7817 34.5038 53.7817 42.6845 53.7817 42.6845 57.8591 42.6845 61.9363 20.8693 61.9363-0.945876 61.9363-0.945876 57.8591Z" fill="#FFFFFF" fill-rule="evenodd" transform="matrix(1.00226 0 0 -1 3490.18 2080.26)"/><path d="M17.0696 49.5267C10.4858 47.6791 5.20776 43.1694 2.37826 37.0837-3.93361 23.663 1.29 7.19933 13.6417 1.43976 16.4711 0.135723 17.3961-0.0272699 23.055-0.0272699 28.7684-0.0272699 29.5845 0.0813627 32.3052 1.43976 33.9919 2.25482 36.3861 3.83049 37.6375 4.86288L39.9229 6.87335 39.9229 3.55886 39.9229 0.244356 45.0921 0.244356 50.2613 0.244356 50.2613 24.9671 50.2613 49.7439 45.2554 49.581 40.1951 49.4179 40.0317 46.1035 39.8686 42.7891 37.8552 44.6907C34.4272 47.9511 29.6933 49.7984 24.2521 50.0156 21.4227 50.1244 18.5388 49.9613 17.0696 49.5267ZM29.3669 40.7243C32.8493 39.6921 36.2773 36.7577 38.1816 33.1716 39.4876 30.6723 39.6509 29.8029 39.6509 24.9671 39.6509 20.4029 39.4333 19.1531 38.3993 17.034 35.8963 11.9265 31.5977 8.88373 26.2109 8.50338 20.0623 8.0144 14.9475 11.0572 12.2269 16.708 6.6224 28.2816 13.2608 41.1046 25.0137 41.4849 25.9389 41.5394 27.8978 41.1589 29.3669 40.7243Z" fill="#FFFFFF" fill-rule="evenodd" transform="matrix(1.00226 0 0 -1 3059.11 2080.5)"/><path d="M18.8581 49.257C15.9258 48.2791 13.5909 47.0292 11.5817 45.2904L9.89836 43.8776 9.89836 46.6489 9.89836 49.4744 4.90262 49.3113-0.147483 49.1484-0.31035 24.5332-0.419016-0.0275393 4.73965-0.0275393 9.89836-0.0275393 9.89836 15.0785C9.89836 32.032 10.2242 34.3142 13.265 37.4114 15.5457 39.7479 17.2834 40.563 20.5957 41.0521 24.3425 41.5409 28.6866 40.237 30.913 37.9003 34.4426 34.2596 34.5514 33.4445 34.7686 15.8392L34.9857-0.0275393 39.7642-0.0275393 44.597-0.0275393 44.7601 16.1108C44.923 31.5429 44.9773 32.4123 46.1176 34.5313 47.5294 37.194 50.6247 40.0196 52.6879 40.563 53.5025 40.7804 55.5118 40.9978 57.1407 40.9978 58.7699 40.9978 60.7791 40.7804 61.5935 40.563 63.657 40.0196 66.7523 37.194 68.164 34.5313 69.3044 32.4123 69.3587 31.5429 69.5215 16.1108L69.7387-0.0275393 74.5717-0.0275393 79.4045-0.0275393 79.4045 16.7629C79.4045 32.0863 79.2959 33.8794 78.3185 37.0852 76.8524 41.8672 73.1599 45.9424 68.4355 48.1159 65.3948 49.4744 64.4173 49.6916 59.5842 49.6916 54.6972 49.6916 53.774 49.5287 50.7333 48.1159 48.5069 47.0834 46.4434 45.5621 44.7601 43.7145L42.2078 40.889 39.7642 43.6059C36.2346 47.5726 31.8362 49.5287 25.7545 49.7461 22.7678 49.909 20.2156 49.6916 18.8581 49.257Z" fill="#FFFFFF" fill-rule="evenodd" transform="matrix(1.00226 0 0 -1 3118.49 2080.26)"/><path d="M16.7724 49.5267C10.2208 47.6791 4.96871 43.1694 2.1531 37.0837-4.12784 23.663 1.07017 7.19933 13.3613 1.43976 16.1769 0.135723 17.0973-0.0272699 22.7285-0.0272699 28.4137-0.0272699 29.226 0.0813627 31.9333 1.43976 33.6119 2.25482 35.9942 3.83049 37.2396 4.86288L39.5136 6.87335 39.5136 3.55886 39.5136 0.244356 44.6575 0.244356 49.8014 0.244356 49.8014 24.9671 49.8014 49.7439 44.8199 49.581 39.7846 49.4179 39.6219 46.1035 39.4596 42.7891 37.456 44.6907C34.045 47.9511 29.3344 49.7984 23.9197 50.0156 21.1042 50.1244 18.2344 49.9613 16.7724 49.5267ZM29.0094 40.7243C32.4748 39.6921 35.8858 36.7577 37.781 33.1716 39.0805 30.6723 39.2429 29.8029 39.2429 24.9671 39.2429 20.4029 39.0265 19.1531 37.9977 17.034 35.5068 11.9265 31.2293 8.88373 25.869 8.50338 19.7505 8.0144 14.6607 11.0572 11.9535 16.708 6.37646 28.2816 12.9823 41.1046 24.6777 41.4849 25.5983 41.5394 27.5475 41.1589 29.0094 40.7243Z" fill="#FFFFFF" fill-rule="evenodd" transform="matrix(1.00226 0 0 -1 3203.96 2080.5)"/><path d="M12.342 49.232C3.0299 46.7391-1.84274 38.7731 1.29746 31.2407 3.24648 26.5262 6.92806 24.1959 17.1606 21.1612 27.0683 18.2349 28.5842 17.2595 28.5842 13.8454 28.5842 11.1359 26.6893 9.23929 23.1701 8.37219 17.5395 7.0174 11.3675 9.67274 10.4472 13.8454L10.0682 15.417 4.7083 15.417-0.597543 15.417-0.272689 13.6829C0.647748 8.58895 4.49168 3.98274 9.79744 1.54418 12.9376 0.0810565 13.5872-0.0273755 20.1924-0.0273755 26.2019-0.0273755 27.6097 0.135183 29.7211 1.16484 40.7117 6.25873 42.0109 19.2103 32.1575 24.8462 30.9663 25.5507 26.3103 27.2847 21.8708 28.6938 15.807 30.5905 13.4249 31.62 12.2338 32.7579 10.1223 34.9257 10.1764 37.4184 12.3962 39.586 13.9662 41.0491 14.2911 41.1574 18.5682 41.1574 23.874 41.1574 25.4981 40.3446 27.2307 36.6598L28.3135 34.4379 33.3486 34.3838 38.3837 34.3838 38.0046 36.4429C37.1925 41.2117 34.0524 45.6553 30.0458 47.7146 25.4981 50.0989 17.9726 50.7494 12.342 49.232Z" fill="#FFFFFF" fill-rule="evenodd" transform="matrix(1.00226 0 0 -1 3260.61 2080.5)"/><path d="M12.3551 49.232C2.98433 46.7391-1.91894 38.7731 1.24101 31.2407 3.20231 26.5262 6.90701 24.1959 17.2039 21.1612 27.1739 18.2349 28.6993 17.2595 28.6993 13.8454 28.6993 11.1359 26.7924 9.23929 23.2513 8.37219 17.5853 7.0174 11.3744 9.67274 10.4482 13.8454L10.0669 15.417 4.67329 15.417-0.665909 15.417-0.339012 13.6829C0.587213 8.58895 4.45534 3.98274 9.79444 1.54418 12.9544 0.0810565 13.6081-0.0273755 20.2548-0.0273755 26.3021-0.0273755 27.7188 0.135183 29.8436 1.16484 40.9031 6.25873 42.2105 19.2103 32.295 24.8462 31.0964 25.5507 26.4112 27.2847 21.9438 28.6938 15.8418 30.5905 13.4447 31.62 12.2461 32.7579 10.1213 34.9257 10.1758 37.4184 12.4095 39.586 13.9895 41.0491 14.3164 41.1574 18.6204 41.1574 23.9595 41.1574 25.5938 40.3446 27.3373 36.6598L28.4271 34.4379 33.4936 34.3838 38.5604 34.3838 38.1792 36.4429C37.3618 41.2117 34.2019 45.6553 30.1703 47.7146 25.5938 50.0989 18.0211 50.7494 12.3551 49.232Z" fill="#FFFFFF" fill-rule="evenodd" transform="matrix(1.00226 0 0 -1 3304.09 2080.5)"/><path d="M17.2429 49.554C4.89102 46.1402-2.47683 34.4359-0.580703 21.1058 1.31542 7.88425 10.4711-0.0271063 23.9065-0.0271063 37.1794-0.0271063 46.8767 8.15513 48.8812 21.0517 50.9398 34.7068 42.8136 47.0614 29.974 49.7707 26.2359 50.5295 20.4934 50.4752 17.2429 49.554ZM31.1659 39.6378C34.2539 37.9037 37.0711 34.219 38.046 30.6968 38.371 29.4506 38.5337 26.3621 38.4253 23.8152 38.2627 20.0221 37.9377 18.7216 36.6377 16.2832 33.8204 11.1896 29.4323 8.64287 23.3647 8.64287 17.568 8.64287 12.4755 12.3817 10.5252 18.1256 9.11663 22.1896 9.27913 29.234 10.8503 32.8102 14.3175 40.7757 23.5814 43.8645 31.1659 39.6378Z" fill="#FFFFFF" fill-rule="evenodd" transform="matrix(1.00226 0 0 -1 3444.22 2080.75)"/><path d="M-0.572471 31.7943C-0.409457 14.3303-0.35512 13.6252 0.840667 11.0761 2.79727 6.73722 5.46045 3.91685 9.48243 1.9644 12.5804 0.445787 13.7761 0.174566 18.0154 0.0118698 23.7767-0.259349 27.5812 0.879612 31.6574 4.02538L34.1032 5.86938 34.1032 3.15754 34.1032 0.445787 38.9948 0.445787 43.8863 0.445787 43.8863 25.1233 43.8863 49.8009 39.049 49.8009 34.212 49.8009 33.9946 33.9639C33.8315 19.2115 33.7227 17.9099 32.6902 15.632 28.0703 5.65242 13.0152 6.41173 9.97156 16.7709 9.26498 19.0489 9.10198 22.6284 9.10198 34.7232L9.10198 49.8009 4.15598 49.8009-0.735573 49.8009-0.572471 31.7943Z" fill="#FFFFFF" fill-rule="evenodd" transform="matrix(1.00226 0 0 -1 3349.8 2080.75)"/></g></g></g></g></g></svg>