<svg width="495" height="476" xmlns="http://www.w3.org/2000/svg" xmlns:xlink="http://www.w3.org/1999/xlink" overflow="hidden"><defs><clipPath id="clip0"><rect x="873" y="1116" width="2649" height="476"/></clipPath></defs><g clip-path="url(#clip0)" transform="translate(-873 -1116)"><path d="M36.9845 82.4277C23.6637 77.8266 12.0899 67.5286 5.32059 54.8209 1.8264 48.0285 0.734805 40.5791-0.138832 22.1746-1.01211 0.264271-0.793791-1.70749 2.48172-0.392981 4.66527 0.483475 9.68806 1.14073 13.8368 1.14073L21.2615 1.14073 21.2615 21.5174C21.2615 44.523 24.7557 52.6296 36.9845 60.2985 51.3968 69.0623 71.0502 63.804 80.2218 48.9049 83.716 42.9893 84.5892 37.7309 84.5892 21.5174L84.5892 1.14073 92.0139 1.14073C96.1631 1.14073 101.185 0.483475 103.151-0.392981 106.645-1.48828 106.863 0.483475 105.99 22.1746 105.335 41.0175 104.243 48.0285 100.531 55.0398 93.7608 67.7478 80.2218 79.1411 66.9014 83.0849 52.7071 87.4669 51.1785 87.4669 36.9845 82.4277Z" fill="#FFFFFF" fill-rule="evenodd" transform="matrix(1 0 0 -1 1211 1203)"/><path d="M7.8986 29.406C-3.26435 23.3532-2.38869 5.19525 8.99272 0.487654 21.2502-4.21994 33.7261 6.76444 30.443 19.5423 28.0352 29.6299 17.0914 34.3375 7.8986 29.406Z" fill="#FFFFFF" fill-rule="evenodd" transform="matrix(1 0 0 -1 874 1229)"/><path d="M0.5722 168.742 1.44708 159.952 69.7036 159.952 137.741 159.952 217.593 79.7419 297.444-0.468278 310.571-0.468278 323.697-0.468278 235.095 88.5318 146.492 177.532 73.2042 177.532-0.303036 177.532 0.5722 168.742Z" fill="#FFFFFF" fill-rule="evenodd" transform="matrix(1 0 0 -1 916 1381)"/><path d="M3.79503 149.174C-0.359802 145.018-0.578421 141.955-0.578421 98.2051L-0.578421 51.8299 25.4433 25.7987 51.6837-0.451384 79.0174 25.7987 106.352 51.8299 106.352 99.299C106.57 145.893 106.57 146.768 101.76 150.049 97.6047 152.893 89.0764 153.549 52.5585 153.549 11.0109 153.549 7.9495 153.33 3.79503 149.174ZM67.2095 128.393C75.3002 124.236 80.3295 114.83 80.3295 103.893 80.3295 94.2676 73.7695 82.4549 67.4281 80.2675 63.4919 79.174 62.8361 77.205 62.8361 65.83L62.8361 52.9239 54.0892 52.9239 45.3423 52.9239 45.3423 64.7361C45.3423 75.4553 44.6864 77.205 36.5954 85.2989 28.9419 92.9552 27.8488 95.1426 27.8488 103.893 27.8488 124.674 49.0599 137.799 67.2095 128.393Z" fill="#FFFFFF" fill-rule="evenodd" transform="matrix(1 0 0 -1 1211 1377)"/><path d="M7.85642 28.5539C-3.30652 22.6902-2.43087 5.09971 8.95055 0.539238 21.208-4.02124 33.6839 6.61987 30.4008 18.9984 27.993 28.7708 17.0492 33.3313 7.85642 28.5539Z" fill="#FFFFFF" fill-rule="evenodd" transform="matrix(1 0 0 -1 903 1266)"/><path d="M-0.284177 131.767-0.284177 122.968 48.4475 122.968 97.3987 122.968 159.082 61.1569 220.545-0.434353 231.74 0.225501 242.716 0.885356 175.545 70.6156 108.374 140.126 54.1549 140.346-0.284177 140.566-0.284177 131.767Z" fill="#FFFFFF" fill-rule="evenodd" transform="matrix(1 0 0 -1 943 1381)"/><path d="M7.81433 28.621C-3.34874 22.7573-2.47307 5.1666 8.90847 0.606069 21.166-3.95446 33.6421 6.68677 30.359 19.0655 27.9511 28.838 17.0072 33.3985 7.81433 28.621Z" fill="#FFFFFF" fill-rule="evenodd" transform="matrix(1 0 0 -1 931 1303)"/><path d="M0.606527 93.8345 1.47895 85.0688 27.2219 85.0688 52.9644 85.0688 95.0688 42.3346 137.391-0.399557 148.953-0.399557 160.734-0.399557 110.994 51.1007 61.4723 102.601 30.7123 102.601-0.266254 102.601 0.606527 93.8345Z" fill="#FFFFFF" fill-rule="evenodd" transform="matrix(1 0 0 -1 973 1381)"/><path d="M70.7343 246.841C67.665 242.902 57.3608 225.173 47.4954 207.663L29.7372 175.928 31.7102 136.531 33.9027 97.3537 16.1445 79.4063C3.86731 67.1497-1.175 60.5834-0.298263 58.1762 0.578833 56.2062 1.8943 54.6741 2.77103 54.6741 3.86731 54.6741 13.9523 63.8666 25.1332 75.2477L45.7416 96.0402 44.4261 135.218 43.1106 174.614 58.8955 186.652C78.1884 201.535 77.5308 203.067 77.75 153.603 77.9692 114.863 77.9692 114.863 64.3765 97.7913L56.0454 87.0667 56.0454 46.1381C56.0454 17.2476 56.9225 4.33441 58.6763 2.58336 60.4301 0.832308 71.6114-0.043218 94.8503-0.043218 122.474-0.043218 128.832 0.613336 129.709 3.23991 130.805 6.0851 118.528 29.0663 111.293 37.8212 109.101 40.2288 104.716 41.5419 98.358 41.5419L88.9309 41.5419 88.9309 55.3306 88.9309 68.9007 116.116 87.9422C130.805 98.4478 144.398 107.64 146.152 108.297 148.563 109.172 154.702 99.7613 168.733 72.8404 186.71 38.9157 188.245 34.976 189.341 20.7493 189.78 12.4324 191.314 4.11544 192.41 2.58336 195.26-0.918744 252.481-1.13735 254.454 2.36439 257.962 7.61718 234.504 34.976 226.392 34.976 222.007 34.976 218.938 38.0402 210.826 50.7344L200.741 66.4931 200.741 91.2254 200.741 115.958 264.539 115.958C324.171 115.958 328.118 115.739 327.021 112.237 326.364 110.048 320.444 90.3498 313.648 68.4628 303.563 35.8515 301.371 26.6591 302.029 15.9341L302.686 3.23991 334.037 2.58336C370.211 1.9268 370.869 2.36439 356.838 20.7493 349.822 29.9418 347.191 31.6929 340.395 32.3494 336.01 32.7874 332.283 33.6625 332.283 34.3195 332.283 36.5081 363.415 110.486 365.168 112.237 366.045 113.331 371.965 98.0103 378.542 78.3118 386.654 52.923 390.381 38.2588 390.819 27.3156 392.354-0.261829 389.284 2.14542 423.266 2.14542 457.686 2.14542 457.906 2.36439 443.874 20.7493 436.64 30.3798 433.57 32.7874 428.747 32.7874 414.716 32.7874 415.593 25.3456 415.593 138.939 415.593 221.234 414.935 242.902 412.743 244.652 410.55 246.622 403.316 240.494 381.611 218.826L353.111 190.373 270.02 190.373 186.71 190.373 155.579 222.109 124.667 253.845 100.331 253.845 75.9962 253.845 70.7343 246.841Z" fill="#FFFFFF" fill-rule="evenodd" transform="matrix(1 0 0 -1 913 1591)"/></g></svg>