<svg width="2649" height="476" xmlns="http://www.w3.org/2000/svg" xmlns:xlink="http://www.w3.org/1999/xlink" overflow="hidden"><defs><clipPath id="clip0"><rect x="873" y="1116" width="2649" height="476"/></clipPath></defs><g clip-path="url(#clip0)" transform="translate(-873 -1116)"><path d="M36.9845 82.4277C23.6637 77.8266 12.0899 67.5286 5.32059 54.8209 1.8264 48.0285 0.734805 40.5791-0.138832 22.1746-1.01211 0.264271-0.793791-1.70749 2.48172-0.392981 4.66527 0.483475 9.68806 1.14073 13.8368 1.14073L21.2615 1.14073 21.2615 21.5174C21.2615 44.523 24.7557 52.6296 36.9845 60.2985 51.3968 69.0623 71.0502 63.804 80.2218 48.9049 83.716 42.9893 84.5892 37.7309 84.5892 21.5174L84.5892 1.14073 92.0139 1.14073C96.1631 1.14073 101.185 0.483475 103.151-0.392981 106.645-1.48828 106.863 0.483475 105.99 22.1746 105.335 41.0175 104.243 48.0285 100.531 55.0398 93.7608 67.7478 80.2218 79.1411 66.9014 83.0849 52.7071 87.4669 51.1785 87.4669 36.9845 82.4277Z" fill="#FFFFFF" fill-rule="evenodd" transform="matrix(1 0 0 -1 1211 1203)"/><path d="M7.8986 29.406C-3.26435 23.3532-2.38869 5.19525 8.99272 0.487654 21.2502-4.21994 33.7261 6.76444 30.443 19.5423 28.0352 29.6299 17.0914 34.3375 7.8986 29.406Z" fill="#FFFFFF" fill-rule="evenodd" transform="matrix(1 0 0 -1 874 1229)"/><path d="M0.5722 168.742 1.44708 159.952 69.7036 159.952 137.741 159.952 217.593 79.7419 297.444-0.468278 310.571-0.468278 323.697-0.468278 235.095 88.5318 146.492 177.532 73.2042 177.532-0.303036 177.532 0.5722 168.742Z" fill="#FFFFFF" fill-rule="evenodd" transform="matrix(1 0 0 -1 916 1381)"/><path d="M3.79503 149.174C-0.359802 145.018-0.578421 141.955-0.578421 98.2051L-0.578421 51.8299 25.4433 25.7987 51.6837-0.451384 79.0174 25.7987 106.352 51.8299 106.352 99.299C106.57 145.893 106.57 146.768 101.76 150.049 97.6047 152.893 89.0764 153.549 52.5585 153.549 11.0109 153.549 7.9495 153.33 3.79503 149.174ZM67.2095 128.393C75.3002 124.236 80.3295 114.83 80.3295 103.893 80.3295 94.2676 73.7695 82.4549 67.4281 80.2675 63.4919 79.174 62.8361 77.205 62.8361 65.83L62.8361 52.9239 54.0892 52.9239 45.3423 52.9239 45.3423 64.7361C45.3423 75.4553 44.6864 77.205 36.5954 85.2989 28.9419 92.9552 27.8488 95.1426 27.8488 103.893 27.8488 124.674 49.0599 137.799 67.2095 128.393Z" fill="#FFFFFF" fill-rule="evenodd" transform="matrix(1 0 0 -1 1211 1377)"/><path d="M7.85642 28.5539C-3.30652 22.6902-2.43087 5.09971 8.95055 0.539238 21.208-4.02124 33.6839 6.61987 30.4008 18.9984 27.993 28.7708 17.0492 33.3313 7.85642 28.5539Z" fill="#FFFFFF" fill-rule="evenodd" transform="matrix(1 0 0 -1 903 1266)"/><path d="M-0.284177 131.767-0.284177 122.968 48.4475 122.968 97.3987 122.968 159.082 61.1569 220.545-0.434353 231.74 0.225501 242.716 0.885356 175.545 70.6156 108.374 140.126 54.1549 140.346-0.284177 140.566-0.284177 131.767Z" fill="#FFFFFF" fill-rule="evenodd" transform="matrix(1 0 0 -1 943 1381)"/><path d="M7.81433 28.621C-3.34874 22.7573-2.47307 5.1666 8.90847 0.606069 21.166-3.95446 33.6421 6.68677 30.359 19.0655 27.9511 28.838 17.0072 33.3985 7.81433 28.621Z" fill="#FFFFFF" fill-rule="evenodd" transform="matrix(1 0 0 -1 931 1303)"/><path d="M0.606527 93.8345 1.47895 85.0688 27.2219 85.0688 52.9644 85.0688 95.0688 42.3346 137.391-0.399557 148.953-0.399557 160.734-0.399557 110.994 51.1007 61.4723 102.601 30.7123 102.601-0.266254 102.601 0.606527 93.8345Z" fill="#FFFFFF" fill-rule="evenodd" transform="matrix(1 0 0 -1 973 1381)"/><path d="M70.7343 246.841C67.665 242.902 57.3608 225.173 47.4954 207.663L29.7372 175.928 31.7102 136.531 33.9027 97.3537 16.1445 79.4063C3.86731 67.1497-1.175 60.5834-0.298263 58.1762 0.578833 56.2062 1.8943 54.6741 2.77103 54.6741 3.86731 54.6741 13.9523 63.8666 25.1332 75.2477L45.7416 96.0402 44.4261 135.218 43.1106 174.614 58.8955 186.652C78.1884 201.535 77.5308 203.067 77.75 153.603 77.9692 114.863 77.9692 114.863 64.3765 97.7913L56.0454 87.0667 56.0454 46.1381C56.0454 17.2476 56.9225 4.33441 58.6763 2.58336 60.4301 0.832308 71.6114-0.043218 94.8503-0.043218 122.474-0.043218 128.832 0.613336 129.709 3.23991 130.805 6.0851 118.528 29.0663 111.293 37.8212 109.101 40.2288 104.716 41.5419 98.358 41.5419L88.9309 41.5419 88.9309 55.3306 88.9309 68.9007 116.116 87.9422C130.805 98.4478 144.398 107.64 146.152 108.297 148.563 109.172 154.702 99.7613 168.733 72.8404 186.71 38.9157 188.245 34.976 189.341 20.7493 189.78 12.4324 191.314 4.11544 192.41 2.58336 195.26-0.918744 252.481-1.13735 254.454 2.36439 257.962 7.61718 234.504 34.976 226.392 34.976 222.007 34.976 218.938 38.0402 210.826 50.7344L200.741 66.4931 200.741 91.2254 200.741 115.958 264.539 115.958C324.171 115.958 328.118 115.739 327.021 112.237 326.364 110.048 320.444 90.3498 313.648 68.4628 303.563 35.8515 301.371 26.6591 302.029 15.9341L302.686 3.23991 334.037 2.58336C370.211 1.9268 370.869 2.36439 356.838 20.7493 349.822 29.9418 347.191 31.6929 340.395 32.3494 336.01 32.7874 332.283 33.6625 332.283 34.3195 332.283 36.5081 363.415 110.486 365.168 112.237 366.045 113.331 371.965 98.0103 378.542 78.3118 386.654 52.923 390.381 38.2588 390.819 27.3156 392.354-0.261829 389.284 2.14542 423.266 2.14542 457.686 2.14542 457.906 2.36439 443.874 20.7493 436.64 30.3798 433.57 32.7874 428.747 32.7874 414.716 32.7874 415.593 25.3456 415.593 138.939 415.593 221.234 414.935 242.902 412.743 244.652 410.55 246.622 403.316 240.494 381.611 218.826L353.111 190.373 270.02 190.373 186.71 190.373 155.579 222.109 124.667 253.845 100.331 253.845 75.9962 253.845 70.7343 246.841Z" fill="#FFFFFF" fill-rule="evenodd" transform="matrix(1 0 0 -1 913 1591)"/><path d="M-0.999718 124.845-0.999718-0.15553 62.5004-0.15553 126-0.15553 126 16.292 126 32.7392 83.3022 32.7392 40.6036 32.7392 40.6036 141.292 40.6036 249.845 19.8021 249.845-0.999718 249.845-0.999718 124.845Z" fill="#FFFFFF" fill-rule="evenodd" transform="matrix(1 0 0 -1 1485 1589)"/><path d="M-3.35069 124.845-3.35069-0.15553 17.6495-0.15553 38.6496-0.15553 38.6496 124.845 38.6496 249.845 17.6495 249.845-3.35069 249.845-3.35069 124.845Z" fill="#FFFFFF" fill-rule="evenodd" transform="matrix(1 0 0 -1 3093 1589)"/><path d="M-3.81557 233.398-3.81557 216.95 30.2843 216.95 64.3846 216.95 64.3846 108.397 64.3846-0.15553 85.2847-0.15553 106.184-0.15553 106.184 108.397 106.184 216.95 139.185 216.95 172.185 216.95 172.185 233.398 172.185 249.845 84.1846 249.845-3.81557 249.845-3.81557 233.398Z" fill="#FFFFFF" fill-rule="evenodd" transform="matrix(1 0 0 -1 3349 1589)"/><path d="M68.8572 199.786C42.2985 192.333 21.0076 174.141 9.59365 149.592-15.8678 95.4542 5.20372 29.0414 55.0291 5.80785 66.443 0.547495 70.1742-0.110004 93.0017-0.110004 116.049-0.110004 119.341 0.328209 130.316 5.80785 137.12 9.09571 146.778 15.4518 151.826 19.6164L161.045 27.7264 161.045 14.3561 161.045 0.985708 181.897 0.985708 202.749 0.985708 202.749 100.715 202.749 200.662 182.556 200.005 162.143 199.347 161.484 185.977 160.826 172.607 152.704 180.278C138.876 193.43 119.78 200.882 97.8305 201.758 86.417 202.197 74.7836 201.539 68.8572 199.786ZM118.463 164.278C132.511 160.114 146.339 148.277 154.021 133.811 159.289 123.729 159.948 120.222 159.948 100.715 159.948 82.3032 159.07 77.2617 154.899 68.7135 144.802 48.1103 127.462 35.8361 105.732 34.3018 80.9295 32.3293 60.2968 44.6035 49.3221 67.3985 26.7141 114.085 53.4926 165.812 100.903 167.346 104.635 167.566 112.537 166.031 118.463 164.278Z" fill="#FFFFFF" fill-rule="evenodd" transform="matrix(1 0 0 -1 1614 1590)"/><path d="M76.0719 198.698C64.2432 194.753 54.8243 189.711 46.7193 182.697L39.929 176.998 39.929 188.177 39.929 199.575 19.7767 198.917-0.594931 198.26-1.25192 98.9646-1.69027-0.111091 19.1193-0.111091 39.929-0.111091 39.929 60.825C39.929 129.214 41.2433 138.42 53.5099 150.914 62.7099 160.339 69.7196 163.627 83.0812 165.6 98.1954 167.572 115.719 162.312 124.7 152.886 138.938 138.2 139.377 134.912 140.253 63.8937L141.129-0.111091 160.405-0.111091 179.9-0.111091 180.558 64.9894C181.215 127.241 181.434 130.748 186.034 139.296 191.729 150.037 204.215 161.435 212.538 163.627 215.824 164.504 223.929 165.381 230.5 165.381 237.072 165.381 245.177 164.504 248.462 163.627 256.786 161.435 269.272 150.037 274.967 139.296 279.567 130.748 279.786 127.241 280.443 64.9894L281.319-0.111091 300.815-0.111091 320.31-0.111091 320.31 67.6199C320.31 129.433 319.872 136.666 315.929 149.598 310.015 168.888 295.12 185.327 276.062 194.095 263.796 199.575 259.853 200.451 240.357 200.451 220.643 200.451 216.919 199.794 204.653 194.095 195.672 189.93 187.348 183.793 180.558 176.34L170.262 164.942 160.405 175.902C146.167 191.903 128.424 199.794 103.891 200.671 91.8431 201.328 81.5478 200.451 76.0719 198.698Z" fill="#FFFFFF" fill-rule="evenodd" transform="matrix(1 0 0 -1 1853 1589)"/><path d="M67.6584 199.786C41.2299 192.333 20.0433 174.141 8.68539 149.592-16.6513 95.4542 4.31697 29.0414 53.8981 5.80785 65.2561 0.547495 68.969-0.110004 91.6845-0.110004 114.618-0.110004 117.895 0.328209 128.816 5.80785 135.587 9.09571 145.197 15.4518 150.221 19.6164L159.394 27.7264 159.394 14.3561 159.394 0.985708 180.144 0.985708 200.894 0.985708 200.894 100.715 200.894 200.662 180.799 200.005 160.487 199.347 159.831 185.977 159.176 172.607 151.094 180.278C137.334 193.43 118.332 200.882 96.4897 201.758 85.1321 202.197 73.5558 201.539 67.6584 199.786ZM117.021 164.278C131 160.114 144.76 148.277 152.405 133.811 157.647 123.729 158.302 120.222 158.302 100.715 158.302 82.3032 157.429 77.2617 153.279 68.7135 143.231 48.1103 125.976 35.8361 104.353 34.3018 79.6715 32.3293 59.14 44.6035 48.2191 67.3985 25.722 114.085 52.3692 165.812 99.5476 167.346 103.261 167.566 111.124 166.031 117.021 164.278Z" fill="#FFFFFF" fill-rule="evenodd" transform="matrix(1 0 0 -1 2197 1590)"/><path d="M49.7866 198.597C12.2223 188.541-7.43344 156.407 5.23381 126.022 13.096 107.004 27.9471 97.6037 69.224 85.3621 109.191 73.5576 115.306 69.6232 115.306 55.851 115.306 44.9213 107.662 37.2704 93.4661 33.7726 70.7528 28.3075 45.8553 39.0189 42.1428 55.851L40.614 62.1905 18.9928 62.1905-2.41043 62.1905-1.1 55.1953C2.61295 34.647 18.119 16.066 39.5219 6.22905 52.1891 0.326974 54.8096-0.11043 81.4542-0.11043 105.696-0.11043 111.375 0.545316 119.892 4.69886 164.227 25.2471 169.468 77.4925 129.72 100.227 124.915 103.069 106.133 110.064 88.2247 115.748 63.764 123.399 54.1546 127.552 49.3499 132.142 40.8323 140.887 41.0507 150.942 50.005 159.686 56.3384 165.588 57.6488 166.025 74.9024 166.025 96.3053 166.025 102.857 162.746 109.846 147.882L114.214 138.919 134.525 138.701 154.836 138.701 153.307 147.007C150.031 166.244 137.364 184.169 121.202 192.476 102.857 202.094 72.4999 204.718 49.7866 198.597Z" fill="#FFFFFF" fill-rule="evenodd" transform="matrix(1 0 0 -1 2425 1590)"/><path d="M49.8391 198.597C12.0385 188.541-7.74082 156.407 5.0061 126.022 12.9178 107.004 27.8622 97.6037 69.3988 85.3621 109.617 73.5576 115.77 69.6232 115.77 55.851 115.77 44.9213 108.078 37.2704 93.7933 33.7726 70.9372 28.3075 45.8831 39.0189 42.1472 55.851L40.6088 62.1905 18.8516 62.1905-2.68621 62.1905-1.36754 55.1953C2.36876 34.647 17.9724 16.066 39.5098 6.22905 52.2568 0.326974 54.8937-0.11043 81.7059-0.11043 106.1-0.11043 111.815 0.545316 120.386 4.69886 164.999 25.2471 170.273 77.4925 130.275 100.227 125.44 103.069 106.54 110.064 88.519 115.748 63.9044 123.399 54.2346 127.552 49.3997 132.142 40.8285 140.887 41.0482 150.942 50.0589 159.686 56.4321 165.588 57.7508 166.025 75.1129 166.025 96.6504 166.025 103.243 162.746 110.276 147.882L114.672 138.919 135.11 138.701 155.549 138.701 154.011 147.007C150.714 166.244 137.967 184.169 121.704 192.476 103.243 202.094 72.6953 204.718 49.8391 198.597Z" fill="#FFFFFF" fill-rule="evenodd" transform="matrix(1 0 0 -1 2600 1590)"/><path d="M69.5563 199.896C19.7299 186.125-9.99127 138.911-2.3425 85.1388 5.30626 31.8043 42.2392-0.109344 96.4364-0.109344 149.978-0.109344 189.096 32.897 197.182 84.9205 205.486 140.004 172.706 189.841 120.912 200.77 105.833 203.831 82.6682 203.612 69.5563 199.896ZM125.72 159.895C138.177 152.9 149.541 138.036 153.474 123.828 154.785 118.801 155.441 106.342 155.004 96.0681 154.348 80.7672 153.037 75.5212 147.793 65.685 136.428 45.1377 118.727 34.8645 94.2508 34.8645 70.8675 34.8645 50.3249 49.9467 42.4577 73.1168 36.7756 89.5108 37.4311 117.927 43.7689 132.353 57.7552 164.485 95.1251 176.945 125.72 159.895Z" fill="#FFFFFF" fill-rule="evenodd" transform="matrix(1 0 0 -1 3164 1591)"/><path d="M-2.30929 128.255C-1.65171 57.807-1.43252 54.9626 3.39117 44.6799 11.2839 27.1773 22.0269 15.8002 38.2512 7.92421 50.7481 1.79826 55.5714 0.704182 72.6724 0.0478815 95.9127-1.04619 111.26 3.54827 127.703 16.238L137.569 23.6765 137.569 12.7372 137.569 1.79826 157.301 1.79826 177.033 1.79826 177.033 101.345 177.033 200.892 157.52 200.892 138.008 200.892 137.131 137.007C136.473 77.4975 136.034 72.2467 131.869 63.0578 113.233 22.8013 52.502 25.8643 40.2243 67.6523 37.374 76.8412 36.7165 91.2809 36.7165 140.07L36.7165 200.892 16.7648 200.892-2.96723 200.892-2.30929 128.255Z" fill="#FFFFFF" fill-rule="evenodd" transform="matrix(1 0 0 -1 2784 1591)"/></g></svg>